<svg width="165" height="138" viewBox="0 0 165 138" fill="none" xmlns="http://www.w3.org/2000/svg">
<path d="M3 75.7403C11.6911 74.9994 22.9569 69.2235 31.0301 65.9786C38.4979 62.9771 40.8654 57.1754 47.258 53.2961C53.4471 49.5404 56.2598 37.2642 57.5029 30.8519C59.2727 21.7233 56.2519 15.1234 49.4709 9.25318C40.5836 1.55953 29.6936 -0.571766 25.4569 11.7897C21.0713 24.5854 22.1785 39.5964 22.1785 52.9118C22.1785 81.3298 20.7032 109.69 20.7032 138" stroke="#535353" stroke-width="5" stroke-linecap="round"/>
<path d="M20 71C25.9962 71 29.1818 71.0891 34.2317 73.8507C39.4971 76.7301 37.8723 83.0476 37.8723 88.104C37.8723 93.0926 37.8723 98.0813 37.8723 103.07C37.8723 105.297 37.8723 118.653 37.8723 111.622C37.8723 104.592 34.8922 88.462 39.3617 83.1153C48.2816 72.4448 59.7745 83.0024 60.2128 93.4885C60.4249 98.5641 60.2128 103.691 60.2128 108.771C60.2128 115.563 60.2128 117.44 60.2128 109.484C60.2128 103.123 53.7613 82.4026 63.9362 82.4026C70.2488 82.4026 72.3627 79.4769 76.2648 84.1447C78.2411 86.5089 76.5957 95.7291 76.5957 98.7939C76.5957 103.783 76.5957 108.771 76.5957 113.76C76.5957 118.553 86.0497 116.611 90 116.611" stroke="#535353" stroke-width="5" stroke-linecap="round"/>
<path d="M68 51.5496C82.6916 41.7754 100.446 36.0649 117.366 30.939C120.174 30.0885 128.867 25.4162 131.809 27.5551C136.104 30.6781 138.113 37.1937 138.418 42.0902C139.054 52.2757 134.323 66.3625 125.608 73.0831C121.061 76.589 108.435 79.0151 103.576 74.775C94.6919 67.0217 111.289 68.9319 115.898 70.5452C127.454 74.5909 134.982 84.3556 142.253 93.0785C145.349 96.7915 146.325 100 151.719 100C155.146 100 158.573 100 162 100" stroke="#535353" stroke-width="5" stroke-linecap="round"/>
<path d="M95.733 83.2009C91.9064 83.2009 88.6205 86.0248 86.4726 88.9291C84.108 92.1263 82.0979 95.9291 82.0186 99.8583C81.9368 103.914 81.9823 108.326 85.2766 111.494C88.1202 114.228 93.848 116.277 97.8136 114.059C105.295 109.873 108 99.4274 108 92.0517C108 89.113 107.529 87.1922 105.608 84.9886C103.642 82.7327 97.7271 82.7025 94.6195 83.4028" stroke="#535353" stroke-width="5" stroke-linecap="round"/>
<path d="M104 84C106.975 89.4265 105.61 95.0472 106.664 100.816C107.447 105.102 109.605 109.509 112.894 112.716C115.04 114.808 118.809 117.545 122.124 116.905C124.991 116.352 128.55 113.107 126.277 110.516" stroke="#535353" stroke-width="5" stroke-linecap="round"/>
<path d="M115 36C115.102 37.296 116.358 39.2059 116.957 40.4267C118.043 42.6391 118.008 45.401 118.008 47.7668C118.008 53.2655 118.008 58.7642 118.008 64.2629C118.008 67.2645 118.008 70.2661 118.008 73.2677C118.008 74.9199 118.008 76.572 118.008 78.2241C118.008 80.336 118.806 82.3582 118.867 84.4291C119.166 94.6074 118.867 104.819 118.867 115" stroke="#535353" stroke-width="5" stroke-linecap="round"/>
<rect x="120" y="93" width="19" height="38" fill="white"/>
<rect x="120" y="84" width="2" height="10" fill="white"/>
<rect x="120" y="47" width="1" height="23" fill="white"/>
</svg>
